# xmcd
#
# Track frame offsets:
#	150
#	17224
#	31984
#	54161
#	66921
#	83462
#	98761
#	116891
#	131040
#	142119
#	160886
#	173591
#	196975
#	214844
#	227325
#	247778
#
# Disc length: 3456 seconds
#
# Revision: 0
# Processed by: cddbd v1.5.2PL0 Copyright (c) Steve Scherf et al.
# Submitted via: EasyCDDAExtractor 16.0.6.1
#
DISCID=cf0d7e10
DTITLE=Chris LeDoux - Classic Chris Ledoux
DYEAR=2008
DGENRE=Country
TTITLE0=Life is a Highway
TTITLE1=Horsepower
TTITLE2=Tougher Than the Rest
TTITLE3=Cadillac Ranch
TTITLE4=Five Dollar Fine
TTITLE5=For Your Love
TTITLE6=Honky Tonk World
TTITLE7=Look at You Girl
TTITLE8=Under This Old Hat
TTITLE9=This Cowboy's Hat
TTITLE10=He Rides the Wild Horses
TTITLE11=Stampede
TTITLE12=Silence on the Line
TTITLE13=Workin' Man's Dollar
TTITLE14=Bang a Drum
TTITLE15=Whatcha Gonna Do with a Cowboy Feat Garth Brooks
EXTD=
EXTT0=
EXTT1=
EXTT2=
EXTT3=
EXTT4=
EXTT5=
EXTT6=
EXTT7=
EXTT8=
EXTT9=
EXTT10=
EXTT11=
EXTT12=
EXTT13=
EXTT14=
EXTT15=
PLAYORDER=
